<?xml version="1.0" encoding="UTF-8" standalone="no"?>
<!-- Created with Inkscape (http://www.inkscape.org/) -->

<svg
   version="1.1"
   id="svg1"
   width="255.71429"
   height="247.05064"
   viewBox="0 0 255.71429 247.05064"
   sodipodi:docname="download.png"
   xmlns:inkscape="http://www.inkscape.org/namespaces/inkscape"
   xmlns:sodipodi="http://sodipodi.sourceforge.net/DTD/sodipodi-0.dtd"
   xmlns="http://www.w3.org/2000/svg"
   xmlns:svg="http://www.w3.org/2000/svg">
  <defs
     id="defs1" />
  <sodipodi:namedview
     id="namedview1"
     pagecolor="#ffffff"
     bordercolor="#000000"
     borderopacity="0.25"
     inkscape:showpageshadow="2"
     inkscape:pageopacity="0.0"
     inkscape:pagecheckerboard="0"
     inkscape:deskcolor="#d1d1d1"
     inkscape:export-bgcolor="#ffffffff"
     showgrid="false">
    <inkscape:grid
       id="grid1"
       units="px"
       originx="-0.35613629"
       originy="-4.5354404"
       spacingx="1"
       spacingy="1"
       empcolor="#0099e5"
       empopacity="0.30196078"
       color="#0099e5"
       opacity="0.14901961"
       empspacing="5"
       dotted="false"
       gridanglex="30"
       gridanglez="30"
       visible="false" />
  </sodipodi:namedview>
  <path
     id="path1"
     style="fill:#b7e144;fill-opacity:1;stroke-width:0.487559;stroke-linecap:round"
     d="m 170.47394,0.00752836 c -0.15086,0.014857 -0.28437,0.052232 -0.40039,0.1113281 -2.7365,-0.6392192 0.96272,18.60932954 -10.2168,35.02734454 -15.97174,26.993033 -18.19141,29.742187 -18.19141,29.742187 -9.06619,16.791859 -7.15491,21.909064 -5.87304,31.412112 0.55105,3.30626 4.62065,17.77072 15.87109,25.97265 0,0 8.71686,6.61322 16.85547,6.89649 1.49569,-2.20418 9.86677,-16.812 12.56445,-36.251955 0,0 3.40975,-24.305019 0.54102,-57.173828 5.52406,8.051938 7.43164,27.019531 7.43164,27.019531 1.51149,14.937028 0.78125,28.509766 0.78125,28.509766 -1.29743,24.026406 -6.71484,38.478516 -6.71484,38.478516 1.51059,0.56806 9.72191,-0.54055 18.60351,-7.07422 9.23415,-5.28227 16.20499,-20.97858 16.34766,-23.41601 1.4044,-19.737962 0.58611,-23.173591 -6.12305,-43.507818 C 196.21753,20.241115 175.15061,-0.45302964 170.47394,0.00752836 Z M 4.2864418,73.077841 c -0.12345,0.01671 -0.2324526,0.05673 -0.328125,0.121094 C -0.35563905,72.040322 -8.6236525,131.0145 27.92902,199.84542 c 0.07553,0.13218 25.715018,50.31585 69.800782,47.05273 -1e-6,0 19.995188,-1.10167 33.535148,-9.60351 0,0 3.1491,-1.41682 4.09375,-4.4082 0,-1e-5 -18.90285,-8.76114 -24.25586,-13.48438 0,0 -39.14163,-26.91414 -65.591788,-64.07031 0,0 -10.79748,-12.93568 -15.363282,-30.72657 42.824065,51.64079 63.457032,63.45704 63.457032,63.45704 36.683838,26.6076 57.445308,29.16796 57.445308,29.16796 2.83395,-2.51906 8.90625,-20.48437 8.90625,-20.48437 4.56581,-25.19062 -2.00391,-38.07422 -2.00391,-38.07422 0,-1.41697 -10.91022,-30.72659 -41.41406,-40.52344 0,0 0.22252,-2.00393 -64.124995,-16.03125 C 25.235473,94.351784 8.1133925,72.559767 4.2864418,73.077841 Z M 246.72589,137.06222 c -12.62368,-0.29956 -36.8333,2.52528 -60.75195,16.22656 -0.0667,0.041 -23.66577,12.1583 -21.26172,34.77344 0,0 0.35454,9.36138 4.94922,16.18359 0,0 0.63182,1.86625 2.18554,2.30273 1e-5,0 5.99542,-8.95484 8.33594,-11.78515 0,0 13.50965,-19.62522 32.17969,-33.83789 0,0 6.15957,-5.60726 15.23242,-8.24805 -25.84832,22.87073 -31.74219,31.4707 -31.74219,31.4707 -13.07738,19.30109 -16.57031,30.17579 -16.57031,30.17579 1.34199,1.41572 11.15235,5.50195 11.15235,5.50195 13.02822,1.93281 18.91406,-0.55469 18.91406,-0.55469 0.7286,-0.0233 17.35161,-5.32935 21.88672,-21.17578 0,0 3.39588,-1.49201 9.54882,-34.81055 3.65953,-14.55771 15.96884,-23.06515 14.85938,-24.60547 0.16397,-0.69915 -3.17993,-1.48102 -8.91797,-1.61718 z" />
</svg>
